<mxfile host="app.diagrams.net" modified="2023-12-23T07:47:39.742Z" agent="Mozilla/5.0 (Windows NT 10.0; Win64; x64) AppleWebKit/537.36 (KHTML, like Gecko) Chrome/120.0.0.0 Safari/537.36" etag="g39YxIJ64wjwMUq63Wa3" version="22.1.11" type="device">
  <diagram name="Page-1" id="FvyVwDOC8u_5bheLfNPO">
    <mxGraphModel dx="2649" dy="946" grid="1" gridSize="10" guides="1" tooltips="1" connect="1" arrows="1" fold="1" page="1" pageScale="1" pageWidth="850" pageHeight="1100" math="0" shadow="0">
      <root>
        <mxCell id="0" />
        <mxCell id="1" parent="0" />
        <mxCell id="-cFn4QeHmTT6EqL2edlK-1" value="Troop" style="swimlane;fontStyle=0;childLayout=stackLayout;horizontal=1;startSize=26;fillColor=none;horizontalStack=0;resizeParent=1;resizeParentMax=0;resizeLast=0;collapsible=1;marginBottom=0;" parent="1" vertex="1">
          <mxGeometry x="210" y="240" width="140" height="104" as="geometry" />
        </mxCell>
        <mxCell id="-cFn4QeHmTT6EqL2edlK-2" value="+ number : int" style="text;strokeColor=none;fillColor=none;align=left;verticalAlign=top;spacingLeft=4;spacingRight=4;overflow=hidden;rotatable=0;points=[[0,0.5],[1,0.5]];portConstraint=eastwest;" parent="-cFn4QeHmTT6EqL2edlK-1" vertex="1">
          <mxGeometry y="26" width="140" height="26" as="geometry" />
        </mxCell>
        <mxCell id="-cFn4QeHmTT6EqL2edlK-3" value="+ foundingDate : date" style="text;strokeColor=none;fillColor=none;align=left;verticalAlign=top;spacingLeft=4;spacingRight=4;overflow=hidden;rotatable=0;points=[[0,0.5],[1,0.5]];portConstraint=eastwest;" parent="-cFn4QeHmTT6EqL2edlK-1" vertex="1">
          <mxGeometry y="52" width="140" height="26" as="geometry" />
        </mxCell>
        <mxCell id="-cFn4QeHmTT6EqL2edlK-4" value="+ community : string" style="text;strokeColor=none;fillColor=none;align=left;verticalAlign=top;spacingLeft=4;spacingRight=4;overflow=hidden;rotatable=0;points=[[0,0.5],[1,0.5]];portConstraint=eastwest;" parent="-cFn4QeHmTT6EqL2edlK-1" vertex="1">
          <mxGeometry y="78" width="140" height="26" as="geometry" />
        </mxCell>
        <mxCell id="-cFn4QeHmTT6EqL2edlK-5" value="Scout" style="swimlane;fontStyle=0;childLayout=stackLayout;horizontal=1;startSize=26;fillColor=none;horizontalStack=0;resizeParent=1;resizeParentMax=0;resizeLast=0;collapsible=1;marginBottom=0;" parent="1" vertex="1">
          <mxGeometry x="210" y="480" width="140" height="130" as="geometry" />
        </mxCell>
        <mxCell id="-cFn4QeHmTT6EqL2edlK-6" value="+ firstName : string" style="text;strokeColor=none;fillColor=none;align=left;verticalAlign=top;spacingLeft=4;spacingRight=4;overflow=hidden;rotatable=0;points=[[0,0.5],[1,0.5]];portConstraint=eastwest;" parent="-cFn4QeHmTT6EqL2edlK-5" vertex="1">
          <mxGeometry y="26" width="140" height="26" as="geometry" />
        </mxCell>
        <mxCell id="-cFn4QeHmTT6EqL2edlK-7" value="+ lastName : string" style="text;strokeColor=none;fillColor=none;align=left;verticalAlign=top;spacingLeft=4;spacingRight=4;overflow=hidden;rotatable=0;points=[[0,0.5],[1,0.5]];portConstraint=eastwest;" parent="-cFn4QeHmTT6EqL2edlK-5" vertex="1">
          <mxGeometry y="52" width="140" height="26" as="geometry" />
        </mxCell>
        <mxCell id="-cFn4QeHmTT6EqL2edlK-8" value="+ birthday : date" style="text;strokeColor=none;fillColor=none;align=left;verticalAlign=top;spacingLeft=4;spacingRight=4;overflow=hidden;rotatable=0;points=[[0,0.5],[1,0.5]];portConstraint=eastwest;" parent="-cFn4QeHmTT6EqL2edlK-5" vertex="1">
          <mxGeometry y="78" width="140" height="26" as="geometry" />
        </mxCell>
        <mxCell id="-cFn4QeHmTT6EqL2edlK-9" value="+ gradeLevel : Grade" style="text;strokeColor=none;fillColor=none;align=left;verticalAlign=top;spacingLeft=4;spacingRight=4;overflow=hidden;rotatable=0;points=[[0,0.5],[1,0.5]];portConstraint=eastwest;" parent="-cFn4QeHmTT6EqL2edlK-5" vertex="1">
          <mxGeometry y="104" width="140" height="26" as="geometry" />
        </mxCell>
        <mxCell id="-cFn4QeHmTT6EqL2edlK-10" value="Adult" style="swimlane;fontStyle=0;childLayout=stackLayout;horizontal=1;startSize=26;fillColor=none;horizontalStack=0;resizeParent=1;resizeParentMax=0;resizeLast=0;collapsible=1;marginBottom=0;" parent="1" vertex="1">
          <mxGeometry x="550" y="480" width="140" height="104" as="geometry" />
        </mxCell>
        <mxCell id="-cFn4QeHmTT6EqL2edlK-11" value="+ firstName : string" style="text;strokeColor=none;fillColor=none;align=left;verticalAlign=top;spacingLeft=4;spacingRight=4;overflow=hidden;rotatable=0;points=[[0,0.5],[1,0.5]];portConstraint=eastwest;" parent="-cFn4QeHmTT6EqL2edlK-10" vertex="1">
          <mxGeometry y="26" width="140" height="26" as="geometry" />
        </mxCell>
        <mxCell id="-cFn4QeHmTT6EqL2edlK-12" value="+ lastName : string" style="text;strokeColor=none;fillColor=none;align=left;verticalAlign=top;spacingLeft=4;spacingRight=4;overflow=hidden;rotatable=0;points=[[0,0.5],[1,0.5]];portConstraint=eastwest;" parent="-cFn4QeHmTT6EqL2edlK-10" vertex="1">
          <mxGeometry y="52" width="140" height="26" as="geometry" />
        </mxCell>
        <mxCell id="-cFn4QeHmTT6EqL2edlK-13" value="+ birthday : date" style="text;strokeColor=none;fillColor=none;align=left;verticalAlign=top;spacingLeft=4;spacingRight=4;overflow=hidden;rotatable=0;points=[[0,0.5],[1,0.5]];portConstraint=eastwest;" parent="-cFn4QeHmTT6EqL2edlK-10" vertex="1">
          <mxGeometry y="78" width="140" height="26" as="geometry" />
        </mxCell>
        <mxCell id="-cFn4QeHmTT6EqL2edlK-14" style="edgeStyle=orthogonalEdgeStyle;rounded=0;orthogonalLoop=1;jettySize=auto;html=1;exitX=1;exitY=0.5;exitDx=0;exitDy=0;entryX=0;entryY=0.5;entryDx=0;entryDy=0;endArrow=none;endFill=0;" parent="1" source="-cFn4QeHmTT6EqL2edlK-7" target="-cFn4QeHmTT6EqL2edlK-12" edge="1">
          <mxGeometry relative="1" as="geometry" />
        </mxCell>
        <mxCell id="-cFn4QeHmTT6EqL2edlK-15" value="" style="endArrow=none;html=1;rounded=0;exitX=0.5;exitY=0;exitDx=0;exitDy=0;entryX=0.5;entryY=0.962;entryDx=0;entryDy=0;entryPerimeter=0;" parent="1" source="-cFn4QeHmTT6EqL2edlK-5" target="-cFn4QeHmTT6EqL2edlK-4" edge="1">
          <mxGeometry width="50" height="50" relative="1" as="geometry">
            <mxPoint x="400" y="420" as="sourcePoint" />
            <mxPoint x="230" y="350" as="targetPoint" />
          </mxGeometry>
        </mxCell>
        <mxCell id="-cFn4QeHmTT6EqL2edlK-21" value="&lt;&lt;enumeration&gt;&gt;&#xa;Grade" style="swimlane;fontStyle=0;childLayout=stackLayout;horizontal=1;startSize=26;fillColor=none;horizontalStack=0;resizeParent=1;resizeParentMax=0;resizeLast=0;collapsible=1;marginBottom=0;" parent="1" vertex="1">
          <mxGeometry x="60" y="610" width="140" height="364" as="geometry" />
        </mxCell>
        <mxCell id="-cFn4QeHmTT6EqL2edlK-23" value="K" style="text;strokeColor=none;fillColor=none;align=left;verticalAlign=top;spacingLeft=4;spacingRight=4;overflow=hidden;rotatable=0;points=[[0,0.5],[1,0.5]];portConstraint=eastwest;" parent="-cFn4QeHmTT6EqL2edlK-21" vertex="1">
          <mxGeometry y="26" width="140" height="26" as="geometry" />
        </mxCell>
        <mxCell id="-cFn4QeHmTT6EqL2edlK-24" value="1" style="text;strokeColor=none;fillColor=none;align=left;verticalAlign=top;spacingLeft=4;spacingRight=4;overflow=hidden;rotatable=0;points=[[0,0.5],[1,0.5]];portConstraint=eastwest;" parent="-cFn4QeHmTT6EqL2edlK-21" vertex="1">
          <mxGeometry y="52" width="140" height="26" as="geometry" />
        </mxCell>
        <mxCell id="-cFn4QeHmTT6EqL2edlK-25" value="2" style="text;strokeColor=none;fillColor=none;align=left;verticalAlign=top;spacingLeft=4;spacingRight=4;overflow=hidden;rotatable=0;points=[[0,0.5],[1,0.5]];portConstraint=eastwest;" parent="-cFn4QeHmTT6EqL2edlK-21" vertex="1">
          <mxGeometry y="78" width="140" height="26" as="geometry" />
        </mxCell>
        <mxCell id="-cFn4QeHmTT6EqL2edlK-26" value="3" style="text;strokeColor=none;fillColor=none;align=left;verticalAlign=top;spacingLeft=4;spacingRight=4;overflow=hidden;rotatable=0;points=[[0,0.5],[1,0.5]];portConstraint=eastwest;" parent="-cFn4QeHmTT6EqL2edlK-21" vertex="1">
          <mxGeometry y="104" width="140" height="26" as="geometry" />
        </mxCell>
        <mxCell id="-cFn4QeHmTT6EqL2edlK-27" value="4" style="text;strokeColor=none;fillColor=none;align=left;verticalAlign=top;spacingLeft=4;spacingRight=4;overflow=hidden;rotatable=0;points=[[0,0.5],[1,0.5]];portConstraint=eastwest;" parent="-cFn4QeHmTT6EqL2edlK-21" vertex="1">
          <mxGeometry y="130" width="140" height="26" as="geometry" />
        </mxCell>
        <mxCell id="-cFn4QeHmTT6EqL2edlK-28" value="5" style="text;strokeColor=none;fillColor=none;align=left;verticalAlign=top;spacingLeft=4;spacingRight=4;overflow=hidden;rotatable=0;points=[[0,0.5],[1,0.5]];portConstraint=eastwest;" parent="-cFn4QeHmTT6EqL2edlK-21" vertex="1">
          <mxGeometry y="156" width="140" height="26" as="geometry" />
        </mxCell>
        <mxCell id="-cFn4QeHmTT6EqL2edlK-29" value="6" style="text;strokeColor=none;fillColor=none;align=left;verticalAlign=top;spacingLeft=4;spacingRight=4;overflow=hidden;rotatable=0;points=[[0,0.5],[1,0.5]];portConstraint=eastwest;" parent="-cFn4QeHmTT6EqL2edlK-21" vertex="1">
          <mxGeometry y="182" width="140" height="26" as="geometry" />
        </mxCell>
        <mxCell id="-cFn4QeHmTT6EqL2edlK-30" value="7" style="text;strokeColor=none;fillColor=none;align=left;verticalAlign=top;spacingLeft=4;spacingRight=4;overflow=hidden;rotatable=0;points=[[0,0.5],[1,0.5]];portConstraint=eastwest;" parent="-cFn4QeHmTT6EqL2edlK-21" vertex="1">
          <mxGeometry y="208" width="140" height="26" as="geometry" />
        </mxCell>
        <mxCell id="-cFn4QeHmTT6EqL2edlK-31" value="8" style="text;strokeColor=none;fillColor=none;align=left;verticalAlign=top;spacingLeft=4;spacingRight=4;overflow=hidden;rotatable=0;points=[[0,0.5],[1,0.5]];portConstraint=eastwest;" parent="-cFn4QeHmTT6EqL2edlK-21" vertex="1">
          <mxGeometry y="234" width="140" height="26" as="geometry" />
        </mxCell>
        <mxCell id="-cFn4QeHmTT6EqL2edlK-32" value="9" style="text;strokeColor=none;fillColor=none;align=left;verticalAlign=top;spacingLeft=4;spacingRight=4;overflow=hidden;rotatable=0;points=[[0,0.5],[1,0.5]];portConstraint=eastwest;" parent="-cFn4QeHmTT6EqL2edlK-21" vertex="1">
          <mxGeometry y="260" width="140" height="26" as="geometry" />
        </mxCell>
        <mxCell id="-cFn4QeHmTT6EqL2edlK-33" value="10" style="text;strokeColor=none;fillColor=none;align=left;verticalAlign=top;spacingLeft=4;spacingRight=4;overflow=hidden;rotatable=0;points=[[0,0.5],[1,0.5]];portConstraint=eastwest;" parent="-cFn4QeHmTT6EqL2edlK-21" vertex="1">
          <mxGeometry y="286" width="140" height="26" as="geometry" />
        </mxCell>
        <mxCell id="-cFn4QeHmTT6EqL2edlK-34" value="11" style="text;strokeColor=none;fillColor=none;align=left;verticalAlign=top;spacingLeft=4;spacingRight=4;overflow=hidden;rotatable=0;points=[[0,0.5],[1,0.5]];portConstraint=eastwest;" parent="-cFn4QeHmTT6EqL2edlK-21" vertex="1">
          <mxGeometry y="312" width="140" height="26" as="geometry" />
        </mxCell>
        <mxCell id="-cFn4QeHmTT6EqL2edlK-35" value="12" style="text;strokeColor=none;fillColor=none;align=left;verticalAlign=top;spacingLeft=4;spacingRight=4;overflow=hidden;rotatable=0;points=[[0,0.5],[1,0.5]];portConstraint=eastwest;" parent="-cFn4QeHmTT6EqL2edlK-21" vertex="1">
          <mxGeometry y="338" width="140" height="26" as="geometry" />
        </mxCell>
        <mxCell id="-cFn4QeHmTT6EqL2edlK-36" value="TroopRole" style="swimlane;fontStyle=0;childLayout=stackLayout;horizontal=1;startSize=26;fillColor=none;horizontalStack=0;resizeParent=1;resizeParentMax=0;resizeLast=0;collapsible=1;marginBottom=0;" parent="1" vertex="1">
          <mxGeometry x="550" y="240" width="140" height="52" as="geometry" />
        </mxCell>
        <mxCell id="-cFn4QeHmTT6EqL2edlK-37" value="+ position : string" style="text;strokeColor=none;fillColor=none;align=left;verticalAlign=top;spacingLeft=4;spacingRight=4;overflow=hidden;rotatable=0;points=[[0,0.5],[1,0.5]];portConstraint=eastwest;" parent="-cFn4QeHmTT6EqL2edlK-36" vertex="1">
          <mxGeometry y="26" width="140" height="26" as="geometry" />
        </mxCell>
        <mxCell id="-cFn4QeHmTT6EqL2edlK-40" value="" style="endArrow=none;html=1;rounded=0;exitX=0.5;exitY=0;exitDx=0;exitDy=0;entryX=0.5;entryY=1;entryDx=0;entryDy=0;entryPerimeter=0;" parent="1" source="-cFn4QeHmTT6EqL2edlK-10" target="-cFn4QeHmTT6EqL2edlK-37" edge="1">
          <mxGeometry width="50" height="50" relative="1" as="geometry">
            <mxPoint x="400" y="410" as="sourcePoint" />
            <mxPoint x="620" y="390" as="targetPoint" />
          </mxGeometry>
        </mxCell>
        <mxCell id="-cFn4QeHmTT6EqL2edlK-42" style="edgeStyle=orthogonalEdgeStyle;rounded=0;orthogonalLoop=1;jettySize=auto;html=1;exitX=1;exitY=0.5;exitDx=0;exitDy=0;entryX=0;entryY=0.5;entryDx=0;entryDy=0;endArrow=none;endFill=0;" parent="1" source="-cFn4QeHmTT6EqL2edlK-2" target="-cFn4QeHmTT6EqL2edlK-37" edge="1">
          <mxGeometry relative="1" as="geometry" />
        </mxCell>
        <mxCell id="-cFn4QeHmTT6EqL2edlK-43" value="assigns &amp;gt;" style="text;html=1;strokeColor=none;fillColor=none;align=center;verticalAlign=middle;whiteSpace=wrap;rounded=0;" parent="1" vertex="1">
          <mxGeometry x="420" y="250" width="60" height="30" as="geometry" />
        </mxCell>
        <mxCell id="-cFn4QeHmTT6EqL2edlK-44" value="^ volunteers" style="text;html=1;strokeColor=none;fillColor=none;align=center;verticalAlign=middle;whiteSpace=wrap;rounded=0;" parent="1" vertex="1">
          <mxGeometry x="630" y="380" width="70" height="30" as="geometry" />
        </mxCell>
        <mxCell id="-cFn4QeHmTT6EqL2edlK-45" value="1..1" style="text;html=1;strokeColor=none;fillColor=none;align=center;verticalAlign=middle;whiteSpace=wrap;rounded=0;" parent="1" vertex="1">
          <mxGeometry x="340" y="250" width="60" height="30" as="geometry" />
        </mxCell>
        <mxCell id="-cFn4QeHmTT6EqL2edlK-46" value="0..*" style="text;html=1;strokeColor=none;fillColor=none;align=center;verticalAlign=middle;whiteSpace=wrap;rounded=0;" parent="1" vertex="1">
          <mxGeometry x="500" y="250" width="60" height="30" as="geometry" />
        </mxCell>
        <mxCell id="-cFn4QeHmTT6EqL2edlK-47" value="0..*" style="text;html=1;strokeColor=none;fillColor=none;align=center;verticalAlign=middle;whiteSpace=wrap;rounded=0;" parent="1" vertex="1">
          <mxGeometry x="610" y="292" width="60" height="30" as="geometry" />
        </mxCell>
        <mxCell id="-cFn4QeHmTT6EqL2edlK-48" value="1..1" style="text;html=1;strokeColor=none;fillColor=none;align=center;verticalAlign=middle;whiteSpace=wrap;rounded=0;" parent="1" vertex="1">
          <mxGeometry x="610" y="450" width="60" height="30" as="geometry" />
        </mxCell>
        <mxCell id="-cFn4QeHmTT6EqL2edlK-49" value="is in ^" style="text;html=1;strokeColor=none;fillColor=none;align=center;verticalAlign=middle;whiteSpace=wrap;rounded=0;" parent="1" vertex="1">
          <mxGeometry x="270" y="400" width="60" height="30" as="geometry" />
        </mxCell>
        <mxCell id="-cFn4QeHmTT6EqL2edlK-50" value="Cookie Type" style="swimlane;fontStyle=0;childLayout=stackLayout;horizontal=1;startSize=26;fillColor=none;horizontalStack=0;resizeParent=1;resizeParentMax=0;resizeLast=0;collapsible=1;marginBottom=0;" parent="1" vertex="1">
          <mxGeometry x="-340" y="396" width="140" height="78" as="geometry" />
        </mxCell>
        <mxCell id="-cFn4QeHmTT6EqL2edlK-51" value="+ name : string" style="text;strokeColor=none;fillColor=none;align=left;verticalAlign=top;spacingLeft=4;spacingRight=4;overflow=hidden;rotatable=0;points=[[0,0.5],[1,0.5]];portConstraint=eastwest;" parent="-cFn4QeHmTT6EqL2edlK-50" vertex="1">
          <mxGeometry y="26" width="140" height="26" as="geometry" />
        </mxCell>
        <mxCell id="-cFn4QeHmTT6EqL2edlK-52" value="+ price : float" style="text;strokeColor=none;fillColor=none;align=left;verticalAlign=top;spacingLeft=4;spacingRight=4;overflow=hidden;rotatable=0;points=[[0,0.5],[1,0.5]];portConstraint=eastwest;" parent="-cFn4QeHmTT6EqL2edlK-50" vertex="1">
          <mxGeometry y="52" width="140" height="26" as="geometry" />
        </mxCell>
        <mxCell id="DtEM4i7iPp7DTQobwpkE-16" style="edgeStyle=orthogonalEdgeStyle;rounded=0;orthogonalLoop=1;jettySize=auto;html=1;endArrow=none;endFill=0;" edge="1" parent="1" source="-cFn4QeHmTT6EqL2edlK-57" target="-cFn4QeHmTT6EqL2edlK-50">
          <mxGeometry relative="1" as="geometry" />
        </mxCell>
        <mxCell id="-cFn4QeHmTT6EqL2edlK-57" value="Troop Allotment" style="swimlane;fontStyle=0;childLayout=stackLayout;horizontal=1;startSize=26;fillColor=none;horizontalStack=0;resizeParent=1;resizeParentMax=0;resizeLast=0;collapsible=1;marginBottom=0;" parent="1" vertex="1">
          <mxGeometry x="-100" y="258" width="140" height="52" as="geometry" />
        </mxCell>
        <mxCell id="-cFn4QeHmTT6EqL2edlK-58" value="+ deliveryDate : date" style="text;strokeColor=none;fillColor=none;align=left;verticalAlign=top;spacingLeft=4;spacingRight=4;overflow=hidden;rotatable=0;points=[[0,0.5],[1,0.5]];portConstraint=eastwest;" parent="-cFn4QeHmTT6EqL2edlK-57" vertex="1">
          <mxGeometry y="26" width="140" height="26" as="geometry" />
        </mxCell>
        <mxCell id="-cFn4QeHmTT6EqL2edlK-63" value="Scout Allotment" style="swimlane;fontStyle=0;childLayout=stackLayout;horizontal=1;startSize=26;fillColor=none;horizontalStack=0;resizeParent=1;resizeParentMax=0;resizeLast=0;collapsible=1;marginBottom=0;" parent="1" vertex="1">
          <mxGeometry x="-100" y="530" width="140" height="52" as="geometry" />
        </mxCell>
        <mxCell id="-cFn4QeHmTT6EqL2edlK-64" value="+ pickupDate : date" style="text;strokeColor=none;fillColor=none;align=left;verticalAlign=top;spacingLeft=4;spacingRight=4;overflow=hidden;rotatable=0;points=[[0,0.5],[1,0.5]];portConstraint=eastwest;" parent="-cFn4QeHmTT6EqL2edlK-63" vertex="1">
          <mxGeometry y="26" width="140" height="26" as="geometry" />
        </mxCell>
        <mxCell id="-cFn4QeHmTT6EqL2edlK-73" style="edgeStyle=orthogonalEdgeStyle;rounded=0;orthogonalLoop=1;jettySize=auto;html=1;endArrow=none;endFill=0;exitX=-0.001;exitY=0.906;exitDx=0;exitDy=0;exitPerimeter=0;" parent="1" source="-cFn4QeHmTT6EqL2edlK-70" edge="1">
          <mxGeometry relative="1" as="geometry">
            <mxPoint x="280" y="610" as="targetPoint" />
            <mxPoint x="540" y="710" as="sourcePoint" />
          </mxGeometry>
        </mxCell>
        <mxCell id="-cFn4QeHmTT6EqL2edlK-69" value="Payment" style="swimlane;fontStyle=0;childLayout=stackLayout;horizontal=1;startSize=26;fillColor=none;horizontalStack=0;resizeParent=1;resizeParentMax=0;resizeLast=0;collapsible=1;marginBottom=0;" parent="1" vertex="1">
          <mxGeometry x="550" y="660" width="140" height="78" as="geometry" />
        </mxCell>
        <mxCell id="-cFn4QeHmTT6EqL2edlK-70" value="+ amount : float" style="text;strokeColor=none;fillColor=none;align=left;verticalAlign=top;spacingLeft=4;spacingRight=4;overflow=hidden;rotatable=0;points=[[0,0.5],[1,0.5]];portConstraint=eastwest;" parent="-cFn4QeHmTT6EqL2edlK-69" vertex="1">
          <mxGeometry y="26" width="140" height="26" as="geometry" />
        </mxCell>
        <mxCell id="-cFn4QeHmTT6EqL2edlK-71" value="+ paymentDate : date" style="text;strokeColor=none;fillColor=none;align=left;verticalAlign=top;spacingLeft=4;spacingRight=4;overflow=hidden;rotatable=0;points=[[0,0.5],[1,0.5]];portConstraint=eastwest;" parent="-cFn4QeHmTT6EqL2edlK-69" vertex="1">
          <mxGeometry y="52" width="140" height="26" as="geometry" />
        </mxCell>
        <mxCell id="-cFn4QeHmTT6EqL2edlK-77" value="0..*" style="text;html=1;strokeColor=none;fillColor=none;align=center;verticalAlign=middle;whiteSpace=wrap;rounded=0;" parent="1" vertex="1">
          <mxGeometry x="30" y="262" width="60" height="30" as="geometry" />
        </mxCell>
        <mxCell id="-cFn4QeHmTT6EqL2edlK-78" value="0..*&lt;br&gt;" style="text;html=1;strokeColor=none;fillColor=none;align=center;verticalAlign=middle;whiteSpace=wrap;rounded=0;" parent="1" vertex="1">
          <mxGeometry x="30" y="530" width="60" height="30" as="geometry" />
        </mxCell>
        <mxCell id="-cFn4QeHmTT6EqL2edlK-79" value="given &amp;gt;" style="text;html=1;strokeColor=none;fillColor=none;align=center;verticalAlign=middle;whiteSpace=wrap;rounded=0;" parent="1" vertex="1">
          <mxGeometry x="90" y="530" width="60" height="30" as="geometry" />
        </mxCell>
        <mxCell id="-cFn4QeHmTT6EqL2edlK-80" value="0..*" style="text;html=1;strokeColor=none;fillColor=none;align=center;verticalAlign=middle;whiteSpace=wrap;rounded=0;" parent="1" vertex="1">
          <mxGeometry x="270" y="450" width="60" height="30" as="geometry" />
        </mxCell>
        <mxCell id="-cFn4QeHmTT6EqL2edlK-83" value="1..1" style="text;html=1;strokeColor=none;fillColor=none;align=center;verticalAlign=middle;whiteSpace=wrap;rounded=0;" parent="1" vertex="1">
          <mxGeometry x="270" y="344" width="60" height="30" as="geometry" />
        </mxCell>
        <mxCell id="-cFn4QeHmTT6EqL2edlK-84" value="&amp;nbsp;looks over &amp;gt;" style="text;html=1;strokeColor=none;fillColor=none;align=center;verticalAlign=middle;whiteSpace=wrap;rounded=0;" parent="1" vertex="1">
          <mxGeometry x="410" y="510" width="70" height="30" as="geometry" />
        </mxCell>
        <mxCell id="-cFn4QeHmTT6EqL2edlK-85" value="0..*" style="text;html=1;strokeColor=none;fillColor=none;align=center;verticalAlign=middle;whiteSpace=wrap;rounded=0;" parent="1" vertex="1">
          <mxGeometry x="340" y="517" width="60" height="30" as="geometry" />
        </mxCell>
        <mxCell id="-cFn4QeHmTT6EqL2edlK-86" value="1..*" style="text;html=1;strokeColor=none;fillColor=none;align=center;verticalAlign=middle;whiteSpace=wrap;rounded=0;" parent="1" vertex="1">
          <mxGeometry x="500" y="517" width="60" height="30" as="geometry" />
        </mxCell>
        <mxCell id="DtEM4i7iPp7DTQobwpkE-1" value="1..1" style="text;html=1;strokeColor=none;fillColor=none;align=center;verticalAlign=middle;whiteSpace=wrap;rounded=0;" vertex="1" parent="1">
          <mxGeometry x="280" y="610" width="60" height="30" as="geometry" />
        </mxCell>
        <mxCell id="DtEM4i7iPp7DTQobwpkE-2" value="0..*" style="text;html=1;strokeColor=none;fillColor=none;align=center;verticalAlign=middle;whiteSpace=wrap;rounded=0;" vertex="1" parent="1">
          <mxGeometry x="500" y="680" width="60" height="30" as="geometry" />
        </mxCell>
        <mxCell id="DtEM4i7iPp7DTQobwpkE-3" value="submits &amp;gt;" style="text;html=1;align=center;verticalAlign=middle;resizable=0;points=[];autosize=1;strokeColor=none;fillColor=none;" vertex="1" parent="1">
          <mxGeometry x="345" y="680" width="80" height="30" as="geometry" />
        </mxCell>
        <mxCell id="DtEM4i7iPp7DTQobwpkE-4" value="1..1" style="text;html=1;strokeColor=none;fillColor=none;align=center;verticalAlign=middle;whiteSpace=wrap;rounded=0;" vertex="1" parent="1">
          <mxGeometry x="150" y="264" width="60" height="30" as="geometry" />
        </mxCell>
        <mxCell id="DtEM4i7iPp7DTQobwpkE-5" style="edgeStyle=orthogonalEdgeStyle;rounded=0;orthogonalLoop=1;jettySize=auto;html=1;entryX=0.993;entryY=-0.062;entryDx=0;entryDy=0;entryPerimeter=0;endArrow=none;endFill=0;" edge="1" parent="1" source="-cFn4QeHmTT6EqL2edlK-1">
          <mxGeometry relative="1" as="geometry">
            <mxPoint x="39.01999999999998" y="292.264" as="targetPoint" />
          </mxGeometry>
        </mxCell>
        <mxCell id="DtEM4i7iPp7DTQobwpkE-6" value="&amp;lt; recieves" style="text;html=1;align=center;verticalAlign=middle;resizable=0;points=[];autosize=1;strokeColor=none;fillColor=none;" vertex="1" parent="1">
          <mxGeometry x="70" y="267" width="80" height="30" as="geometry" />
        </mxCell>
        <mxCell id="DtEM4i7iPp7DTQobwpkE-20" style="edgeStyle=orthogonalEdgeStyle;rounded=0;orthogonalLoop=1;jettySize=auto;html=1;endArrow=none;endFill=0;dashed=1;" edge="1" parent="1" source="DtEM4i7iPp7DTQobwpkE-7">
          <mxGeometry relative="1" as="geometry">
            <mxPoint x="-200" y="280" as="targetPoint" />
          </mxGeometry>
        </mxCell>
        <mxCell id="DtEM4i7iPp7DTQobwpkE-7" value="Cookie Case" style="swimlane;fontStyle=0;childLayout=stackLayout;horizontal=1;startSize=26;fillColor=none;horizontalStack=0;resizeParent=1;resizeParentMax=0;resizeLast=0;collapsible=1;marginBottom=0;whiteSpace=wrap;html=1;" vertex="1" parent="1">
          <mxGeometry x="-270" y="140" width="140" height="52" as="geometry" />
        </mxCell>
        <mxCell id="DtEM4i7iPp7DTQobwpkE-8" value="+ caseQuantity : int" style="text;strokeColor=none;fillColor=none;align=left;verticalAlign=top;spacingLeft=4;spacingRight=4;overflow=hidden;rotatable=0;points=[[0,0.5],[1,0.5]];portConstraint=eastwest;whiteSpace=wrap;html=1;" vertex="1" parent="DtEM4i7iPp7DTQobwpkE-7">
          <mxGeometry y="26" width="140" height="26" as="geometry" />
        </mxCell>
        <mxCell id="DtEM4i7iPp7DTQobwpkE-19" style="edgeStyle=orthogonalEdgeStyle;rounded=0;orthogonalLoop=1;jettySize=auto;html=1;endArrow=none;endFill=0;dashed=1;" edge="1" parent="1" source="DtEM4i7iPp7DTQobwpkE-11">
          <mxGeometry relative="1" as="geometry">
            <mxPoint x="-200" y="560" as="targetPoint" />
          </mxGeometry>
        </mxCell>
        <mxCell id="DtEM4i7iPp7DTQobwpkE-11" value="Cookie Box" style="swimlane;fontStyle=0;childLayout=stackLayout;horizontal=1;startSize=26;fillColor=none;horizontalStack=0;resizeParent=1;resizeParentMax=0;resizeLast=0;collapsible=1;marginBottom=0;whiteSpace=wrap;html=1;" vertex="1" parent="1">
          <mxGeometry x="-270" y="686" width="140" height="52" as="geometry" />
        </mxCell>
        <mxCell id="DtEM4i7iPp7DTQobwpkE-12" value="+ boxQuantity : int" style="text;strokeColor=none;fillColor=none;align=left;verticalAlign=top;spacingLeft=4;spacingRight=4;overflow=hidden;rotatable=0;points=[[0,0.5],[1,0.5]];portConstraint=eastwest;whiteSpace=wrap;html=1;" vertex="1" parent="DtEM4i7iPp7DTQobwpkE-11">
          <mxGeometry y="26" width="140" height="26" as="geometry" />
        </mxCell>
        <mxCell id="DtEM4i7iPp7DTQobwpkE-17" value="1..1" style="text;html=1;strokeColor=none;fillColor=none;align=center;verticalAlign=middle;whiteSpace=wrap;rounded=0;" vertex="1" parent="1">
          <mxGeometry x="160" y="530" width="60" height="30" as="geometry" />
        </mxCell>
        <mxCell id="DtEM4i7iPp7DTQobwpkE-18" style="edgeStyle=orthogonalEdgeStyle;rounded=0;orthogonalLoop=1;jettySize=auto;html=1;entryX=0.506;entryY=1.178;entryDx=0;entryDy=0;entryPerimeter=0;endArrow=none;endFill=0;" edge="1" parent="1" source="-cFn4QeHmTT6EqL2edlK-63" target="-cFn4QeHmTT6EqL2edlK-52">
          <mxGeometry relative="1" as="geometry">
            <Array as="points">
              <mxPoint x="-269" y="560" />
            </Array>
          </mxGeometry>
        </mxCell>
        <mxCell id="DtEM4i7iPp7DTQobwpkE-21" value="0..*" style="text;html=1;strokeColor=none;fillColor=none;align=center;verticalAlign=middle;whiteSpace=wrap;rounded=0;" vertex="1" parent="1">
          <mxGeometry x="-160" y="280" width="60" height="30" as="geometry" />
        </mxCell>
        <mxCell id="DtEM4i7iPp7DTQobwpkE-22" value="0..*" style="text;html=1;strokeColor=none;fillColor=none;align=center;verticalAlign=middle;whiteSpace=wrap;rounded=0;" vertex="1" parent="1">
          <mxGeometry x="-280" y="366" width="60" height="30" as="geometry" />
        </mxCell>
        <mxCell id="DtEM4i7iPp7DTQobwpkE-23" value="0..*" style="text;html=1;strokeColor=none;fillColor=none;align=center;verticalAlign=middle;whiteSpace=wrap;rounded=0;" vertex="1" parent="1">
          <mxGeometry x="-150" y="530" width="60" height="30" as="geometry" />
        </mxCell>
        <mxCell id="DtEM4i7iPp7DTQobwpkE-24" value="0..*" style="text;html=1;strokeColor=none;fillColor=none;align=center;verticalAlign=middle;whiteSpace=wrap;rounded=0;" vertex="1" parent="1">
          <mxGeometry x="-270" y="474" width="60" height="30" as="geometry" />
        </mxCell>
        <mxCell id="DtEM4i7iPp7DTQobwpkE-26" style="edgeStyle=orthogonalEdgeStyle;rounded=0;orthogonalLoop=1;jettySize=auto;html=1;entryX=0.025;entryY=-0.045;entryDx=0;entryDy=0;entryPerimeter=0;endArrow=none;endFill=0;" edge="1" parent="1" source="-cFn4QeHmTT6EqL2edlK-63" target="-cFn4QeHmTT6EqL2edlK-8">
          <mxGeometry relative="1" as="geometry" />
        </mxCell>
        <mxCell id="DtEM4i7iPp7DTQobwpkE-27" value="&amp;lt; contains" style="text;html=1;align=center;verticalAlign=middle;resizable=0;points=[];autosize=1;strokeColor=none;fillColor=none;" vertex="1" parent="1">
          <mxGeometry x="-250" y="290" width="80" height="30" as="geometry" />
        </mxCell>
        <mxCell id="DtEM4i7iPp7DTQobwpkE-28" value="&amp;lt; contains" style="text;html=1;align=center;verticalAlign=middle;resizable=0;points=[];autosize=1;strokeColor=none;fillColor=none;" vertex="1" parent="1">
          <mxGeometry x="-240" y="530" width="80" height="30" as="geometry" />
        </mxCell>
      </root>
    </mxGraphModel>
  </diagram>
</mxfile>
